<svg width="1354" height="431" viewBox="0 0 1354 431" fill="none" xmlns="http://www.w3.org/2000/svg">
<g style="mix-blend-mode:overlay">
<path fill-rule="evenodd" clip-rule="evenodd" d="M979.765 4.32285C979.213 11.8446 976.218 18.8403 971.44 23.7712C966.661 28.7019 960.491 31.1638 954.285 30.6152C948.079 30.0667 942.347 26.5526 938.349 20.8461C934.351 15.1394 932.415 7.70792 932.967 0.186186C932.967 0.186186 945.882 7.57204 956.366 2.25452C966.849 -3.06302 979.765 4.32285 979.765 4.32285ZM986.177 24.2982C984.701 27.2004 982.983 29.8022 981.101 31.9589C979.947 32.997 978.97 33.9798 978.063 34.8913C973.311 39.6692 970.507 42.4891 954.397 41.0651C937.588 39.5793 935.634 36.8885 930.876 30.3371L930.876 30.337L930.876 30.3368C930.204 29.4113 929.475 28.4088 928.642 27.3217C921.905 18.5393 922.131 10.3163 922.887 0L929.573 0.590952C928.495 15.2856 933.724 22.8529 933.724 22.8529C933.724 22.8529 938.19 32.6772 954.904 34.1546C971.617 35.632 976.446 26.6293 976.446 26.6293C976.446 26.6293 982.954 16.6195 983.841 4.51802L990.849 5.13745C991.736 4.92022 992.652 4.81889 993.576 4.84019C995.906 4.89387 998.164 5.72374 1000.02 7.20661C1001.87 8.68952 1003.21 10.7463 1003.85 13.0717C1004.49 15.3971 1004.39 17.8672 1003.57 20.1151C1002.75 22.363 1001.24 24.269 999.278 25.55C997.315 26.831 995 27.4189 992.676 27.2263C990.351 27.0337 988.142 26.0707 986.375 24.4807C986.309 24.4206 986.243 24.3598 986.177 24.2982ZM990.614 11.4387C991.475 10.8787 992.479 10.591 993.505 10.6146C994.635 10.6406 995.73 11.043 996.627 11.762C997.525 12.481 998.177 13.4783 998.488 14.6058C998.798 15.7333 998.75 16.931 998.351 18.0209C997.951 19.1108 997.221 20.035 996.27 20.6561C995.318 21.2773 994.195 21.5623 993.068 21.4689C991.941 21.3756 990.87 20.9087 990.014 20.1377C989.463 19.6417 989.019 19.0369 988.707 18.3642C989.49 16.1384 990.134 13.8141 990.614 11.4387ZM923.468 43.5511L984.49 48.9451C985.639 49.0467 986.485 50.29 986.38 51.7222C986.275 53.1544 985.258 54.233 984.109 54.1315L923.088 48.7375C921.939 48.6359 921.092 47.3926 921.198 45.9604C921.303 44.5282 922.319 43.4496 923.468 43.5511ZM981.785 239.477C981.129 243.961 979.03 248.003 975.95 250.713C972.87 253.423 969.062 254.579 965.362 253.928C961.662 253.276 958.374 250.869 956.222 247.237C954.069 243.605 953.228 239.046 953.884 234.561C953.884 234.561 961.315 239.664 967.834 237.019C974.354 234.374 981.785 239.477 981.785 239.477ZM984.77 251.796C983.759 253.46 982.616 254.932 981.394 256.128C980.656 256.691 980.028 257.23 979.444 257.73L979.444 257.73C976.387 260.349 974.582 261.896 964.978 260.203C954.956 258.438 953.9 256.722 951.328 252.543L951.328 252.543C950.965 251.953 950.571 251.314 950.118 250.618C946.455 244.998 946.945 240.076 947.844 233.925L951.83 234.628C950.549 243.388 953.36 248.201 953.36 248.201C953.36 248.201 955.616 254.328 965.58 256.083C975.545 257.839 978.83 252.688 978.83 252.688C978.83 252.688 983.167 247.021 984.222 239.806L988.4 240.542C988.942 240.458 989.496 240.445 990.049 240.506C991.445 240.659 992.764 241.274 993.811 242.26C994.858 243.246 995.576 244.55 995.86 245.979C996.144 247.408 995.978 248.884 995.386 250.19C994.795 251.496 993.809 252.562 992.576 253.228C991.344 253.895 989.929 254.127 988.543 253.891C987.157 253.654 985.872 252.962 984.881 251.916C984.844 251.876 984.807 251.836 984.77 251.796ZM987.987 244.311C988.528 244.019 989.143 243.899 989.757 243.967C990.434 244.041 991.074 244.339 991.581 244.817C992.089 245.296 992.437 245.928 992.575 246.621C992.713 247.313 992.632 248.029 992.345 248.662C992.058 249.296 991.58 249.812 990.983 250.135C990.385 250.459 989.699 250.571 989.027 250.457C988.355 250.342 987.732 250.006 987.252 249.499C986.942 249.173 986.702 248.787 986.544 248.367C987.11 247.072 987.596 245.711 987.987 244.311ZM946.313 260.087L982.694 266.496C983.379 266.617 983.833 267.407 983.708 268.261C983.583 269.115 982.927 269.709 982.242 269.589L945.861 263.179C945.176 263.058 944.722 262.268 944.847 261.414C944.972 260.56 945.628 259.966 946.313 260.087ZM614.24 74.9197C615.11 78.4823 614.776 82.2425 613.313 85.373C611.849 88.5034 609.376 90.7478 606.437 91.6123C603.497 92.4768 600.333 91.8906 597.639 89.9827C594.946 88.0748 592.944 85.0015 592.074 81.4388C592.074 81.4388 599.125 82.5147 603.157 78.1792C607.19 73.8438 614.24 74.9197 614.24 74.9197ZM620.177 82.9628C619.931 84.5649 619.529 86.0722 618.985 87.4039C618.608 88.0896 618.305 88.7181 618.024 89.3009C616.55 92.3563 615.68 94.1595 608.049 96.4037C600.088 98.7453 598.786 97.8581 595.616 95.698L595.616 95.6979C595.169 95.3928 594.684 95.0622 594.137 94.7117C589.723 91.8805 588.598 88.0537 587.406 83.1674L590.572 82.2361C592.271 89.1962 595.81 91.7392 595.81 91.7392C595.81 91.7392 599.334 95.4589 607.25 93.1306C615.167 90.8023 616.045 85.7879 616.045 85.7879C616.045 85.7879 617.546 80.0075 616.147 74.2757L619.466 73.2995C619.841 73.0398 620.248 72.8283 620.677 72.6717C621.758 72.277 622.921 72.2526 623.995 72.6022C625.069 72.9517 625.996 73.6565 626.639 74.612C627.281 75.5675 627.604 76.7227 627.56 77.9061C627.517 79.0894 627.109 80.238 626.396 81.1811C625.684 82.1242 624.706 82.8116 623.607 83.1413C622.508 83.471 621.347 83.4254 620.296 83.0112C620.256 82.9956 620.217 82.9794 620.177 82.9628ZM620.299 76.2432C620.612 75.8303 621.031 75.517 621.507 75.3433C622.031 75.1519 622.595 75.1401 623.116 75.3096C623.637 75.479 624.086 75.8208 624.398 76.2841C624.709 76.7474 624.866 77.3075 624.845 77.8812C624.823 78.4551 624.625 79.0119 624.28 79.4692C623.935 79.9265 623.46 80.2598 622.928 80.4197C622.395 80.5796 621.832 80.5574 621.322 80.3566C620.994 80.2274 620.7 80.0288 620.456 79.7751C620.483 78.6095 620.433 77.4234 620.299 76.2432ZM594.18 103.116L623.083 94.6151C623.627 94.455 624.202 94.8752 624.368 95.5536C624.534 96.2319 624.227 96.9116 623.683 97.0716L594.78 105.572C594.235 105.732 593.66 105.312 593.494 104.634C593.329 103.955 593.636 103.276 594.18 103.116ZM239.014 150.77C240.597 157.254 239.99 164.097 237.326 169.794C234.663 175.491 230.161 179.576 224.812 181.149C219.462 182.722 213.703 181.656 208.802 178.183C203.9 174.711 200.257 169.118 198.674 162.634C198.674 162.634 211.505 164.592 218.844 156.702C226.183 148.812 239.014 150.77 239.014 150.77ZM249.819 165.408C249.371 168.324 248.639 171.067 247.649 173.49C246.964 174.738 246.412 175.882 245.9 176.943C243.217 182.503 241.634 185.785 227.747 189.869C213.258 194.131 210.889 192.516 205.12 188.585L205.12 188.585C204.305 188.029 203.422 187.428 202.428 186.79C194.395 181.637 192.348 174.673 190.177 165.78L195.94 164.085C199.032 176.752 205.472 181.38 205.472 181.38C205.472 181.38 211.886 188.15 226.293 183.912C240.7 179.675 242.298 170.549 242.298 170.549C242.298 170.549 245.03 160.029 242.483 149.598L248.524 147.821C249.208 147.349 249.948 146.964 250.728 146.679C252.695 145.96 254.813 145.916 256.768 146.552C258.723 147.188 260.409 148.471 261.578 150.21C262.747 151.949 263.335 154.051 263.256 156.205C263.177 158.358 262.434 160.449 261.137 162.165C259.841 163.881 258.061 165.133 256.061 165.733C254.061 166.333 251.947 166.25 250.035 165.496C249.963 165.467 249.891 165.438 249.819 165.408ZM250.04 153.178C250.609 152.427 251.373 151.857 252.239 151.541C253.193 151.192 254.22 151.171 255.167 151.479C256.115 151.788 256.933 152.41 257.5 153.253C258.066 154.096 258.352 155.115 258.313 156.16C258.275 157.204 257.914 158.217 257.286 159.05C256.658 159.882 255.794 160.488 254.825 160.779C253.855 161.07 252.83 161.03 251.903 160.665C251.306 160.43 250.77 160.068 250.326 159.606C250.376 157.485 250.284 155.326 250.04 153.178ZM202.506 202.085L255.107 186.614C256.097 186.323 257.145 187.087 257.446 188.322C257.747 189.557 257.189 190.794 256.198 191.085L203.597 206.555C202.607 206.847 201.559 206.082 201.258 204.847C200.957 203.613 201.515 202.376 202.506 202.085ZM123.415 384.493C122.713 391.161 119.854 397.279 115.468 401.5C111.081 405.722 105.526 407.701 100.024 407.003C94.5227 406.305 89.5255 402.987 86.1319 397.778C82.7383 392.569 81.2264 385.897 81.9286 379.229C81.9286 379.229 93.2028 386.233 102.672 381.861C112.141 377.489 123.415 384.493 123.415 384.493ZM128.555 402.468C127.16 404.998 125.559 407.253 123.826 409.107C122.771 409.99 121.874 410.831 121.043 411.61L121.043 411.611C116.684 415.697 114.111 418.109 99.8295 416.297C84.9283 414.406 83.2668 411.948 79.2213 405.962L79.2213 405.962L79.2212 405.962C78.6497 405.116 78.0306 404.201 77.3199 403.206C71.5782 395.17 72.01 387.867 72.9732 378.722L78.8999 379.474C77.528 392.501 81.9641 399.405 81.9641 399.405C81.9641 399.405 85.658 408.291 100.475 410.171C115.291 412.051 119.837 404.211 119.837 404.211C119.837 404.211 125.905 395.533 127.034 384.804L133.247 385.593C134.041 385.43 134.858 385.371 135.679 385.421C137.749 385.548 139.733 386.362 141.338 387.743C142.942 389.124 144.08 390.998 144.584 393.087C145.087 395.176 144.93 397.369 144.134 399.339C143.338 401.31 141.946 402.953 140.166 404.025C138.385 405.098 136.31 405.542 134.249 405.292C132.188 405.042 130.251 404.111 128.725 402.637C128.668 402.582 128.611 402.525 128.555 402.468ZM132.86 391.187C133.641 390.718 134.543 390.496 135.454 390.552C136.457 390.613 137.419 391.008 138.197 391.678C138.975 392.347 139.527 393.256 139.771 394.269C140.015 395.282 139.939 396.345 139.553 397.3C139.167 398.256 138.492 399.053 137.629 399.573C136.766 400.093 135.76 400.308 134.76 400.187C133.761 400.065 132.822 399.614 132.082 398.9C131.606 398.44 131.229 397.887 130.971 397.279C131.729 395.327 132.366 393.282 132.86 391.187ZM72.264 417.458L126.361 424.322C127.379 424.452 128.097 425.586 127.963 426.855C127.829 428.125 126.895 429.049 125.877 428.92L71.7798 422.056C70.7612 421.927 70.0439 420.793 70.1777 419.523C70.3114 418.254 71.2454 417.329 72.264 417.458ZM53.2538 19.3788C52.5516 26.0469 49.6926 32.1646 45.3059 36.3862C40.9192 40.6076 35.364 42.5871 29.8626 41.889C24.3611 41.191 19.3639 37.8726 15.9703 32.664C12.5767 27.4553 11.0647 20.783 11.767 14.1148C11.767 14.1148 23.0412 21.1187 32.5104 16.7468C41.9797 12.3749 53.2538 19.3788 53.2538 19.3788ZM58.3929 37.3543C56.9983 39.8843 55.3979 42.1391 53.6646 43.9926C52.6093 44.8764 51.7128 45.7169 50.8812 46.4965L50.8812 46.4965C46.5223 50.583 43.9497 52.9949 29.6679 51.1828C14.7667 49.2921 13.1052 46.8338 9.05969 40.8482L9.05964 40.8481L9.05954 40.848C8.48805 40.0024 7.86899 39.0865 7.1583 38.0918C1.41662 30.0558 1.84842 22.7532 2.81157 13.6076L8.73827 14.3596C7.36633 27.3866 11.8024 34.2913 11.8024 34.2913C11.8024 34.2913 15.4963 43.1766 30.3131 45.0565C45.1298 46.9365 49.6758 39.0968 49.6758 39.0968C49.6758 39.0968 55.7429 30.4186 56.8727 19.6905L63.085 20.4787C63.8794 20.3156 64.6967 20.2566 65.5179 20.3069C67.5877 20.4336 69.5718 21.2479 71.1759 22.6289C72.7801 24.01 73.9184 25.8841 74.4222 27.9731C74.9259 30.0621 74.7681 32.2546 73.9721 34.2251C73.1762 36.1955 71.7845 37.839 70.0039 38.9113C68.2231 39.9835 66.1483 40.4277 64.0875 40.1777C62.0266 39.9277 60.0894 38.9967 58.5637 37.5232C58.5061 37.4676 58.4491 37.4113 58.3929 37.3543ZM62.6986 26.0726C63.4798 25.6039 64.3811 25.3822 65.2922 25.4379C66.2958 25.4994 67.2578 25.8942 68.0356 26.5638C68.8134 27.2334 69.3654 28.1422 69.6096 29.1551C69.8539 30.1679 69.7773 31.231 69.3914 32.1864C69.0054 33.1418 68.3306 33.9387 67.4673 34.4586C66.6039 34.9786 65.5979 35.1939 64.5987 35.0727C63.5993 34.9515 62.6601 34.5001 61.9203 33.7856C61.4444 33.326 61.0673 32.7734 60.8089 32.1647C61.567 30.2125 62.2048 28.168 62.6986 26.0726ZM2.10235 52.3444L56.1992 59.2083C57.2177 59.3376 57.935 60.4716 57.8013 61.7412C57.6676 63.0108 56.7335 63.9353 55.715 63.8061L1.61814 56.9422C0.599609 56.813 -0.117677 55.679 0.0160342 54.4093C0.149745 53.1397 1.08382 52.2152 2.10235 52.3444ZM911.798 397.806C911.094 402.619 908.842 406.956 905.537 409.865C902.232 412.773 898.144 414.014 894.173 413.314C890.203 412.615 886.675 410.032 884.365 406.134C882.055 402.237 881.152 397.343 881.856 392.531C881.856 392.531 889.83 398.008 896.827 395.169C903.824 392.33 911.798 397.806 911.798 397.806ZM915.002 411.027C913.917 412.813 912.69 414.392 911.379 415.676C910.587 416.28 909.913 416.858 909.287 417.395L909.287 417.395L909.287 417.395C906.005 420.206 904.069 421.865 893.761 420.049C883.007 418.155 881.873 416.313 879.113 411.829L879.113 411.829C878.723 411.195 878.301 410.509 877.814 409.762C873.883 403.731 874.409 398.449 875.374 391.848L879.652 392.602C878.277 402.004 881.294 407.169 881.294 407.169C881.294 407.169 883.714 413.744 894.408 415.628C905.102 417.512 908.628 411.984 908.628 411.984C908.628 411.984 913.282 405.902 914.414 398.159L918.898 398.949C919.479 398.859 920.073 398.845 920.668 398.91C922.165 399.075 923.581 399.735 924.704 400.793C925.828 401.852 926.599 403.251 926.904 404.784C927.208 406.317 927.03 407.902 926.395 409.304C925.76 410.705 924.703 411.848 923.38 412.564C922.057 413.279 920.539 413.528 919.051 413.275C917.563 413.021 916.185 412.278 915.121 411.155C915.081 411.113 915.041 411.07 915.002 411.027ZM918.455 402.994C919.035 402.681 919.695 402.552 920.354 402.624C921.081 402.704 921.767 403.024 922.312 403.538C922.856 404.051 923.23 404.729 923.378 405.473C923.526 406.216 923.439 406.984 923.131 407.664C922.824 408.343 922.311 408.898 921.669 409.245C921.028 409.592 920.292 409.712 919.571 409.589C918.849 409.466 918.181 409.106 917.665 408.562C917.333 408.212 917.076 407.797 916.906 407.347C917.513 405.957 918.035 404.497 918.455 402.994ZM873.731 419.924L912.774 426.803C913.509 426.932 913.996 427.78 913.862 428.697C913.728 429.613 913.024 430.251 912.289 430.121L873.246 423.242C872.511 423.113 872.023 422.265 872.157 421.349C872.291 420.432 872.996 419.795 873.731 419.924ZM1340.51 211.582C1338.38 216.273 1334.81 219.934 1330.57 221.759C1326.34 223.584 1321.78 223.424 1317.91 221.314C1314.04 219.204 1311.17 215.317 1309.94 210.508C1308.7 205.699 1309.2 200.362 1311.32 195.671C1311.32 195.671 1317.91 204.086 1325.91 203.627C1333.92 203.167 1340.51 211.582 1340.51 211.582ZM1339.95 226.27C1338.31 227.722 1336.59 228.912 1334.88 229.77C1333.89 230.112 1333.03 230.469 1332.23 230.8C1328.04 232.534 1325.57 233.557 1315.53 228.08C1305.04 222.365 1304.42 220.078 1302.89 214.51L1302.89 214.51C1302.67 213.723 1302.44 212.871 1302.16 211.934C1299.88 204.368 1301.96 199.133 1304.87 192.699L1309.04 194.972C1304.89 204.136 1306.48 210.493 1306.48 210.493C1306.48 210.493 1307.05 218.088 1317.48 223.77C1327.9 229.453 1333.13 225.018 1333.13 225.018C1333.13 225.018 1339.67 220.409 1343.09 212.862L1347.46 215.244C1348.08 215.355 1348.69 215.549 1349.29 215.824C1350.77 216.518 1352.03 217.692 1352.88 219.172C1353.72 220.651 1354.11 222.358 1353.97 224.037C1353.84 225.717 1353.2 227.281 1352.14 228.496C1351.08 229.712 1349.66 230.514 1348.09 230.784C1346.53 231.054 1344.9 230.778 1343.45 229.996C1341.99 229.214 1340.8 227.968 1340.03 226.443C1340 226.386 1339.97 226.328 1339.95 226.27ZM1345.83 219.238C1346.51 219.121 1347.23 219.22 1347.88 219.525C1348.6 219.862 1349.22 220.431 1349.63 221.148C1350.03 221.866 1350.22 222.693 1350.16 223.508C1350.09 224.322 1349.78 225.08 1349.27 225.67C1348.75 226.259 1348.06 226.648 1347.31 226.779C1346.55 226.91 1345.76 226.776 1345.05 226.397C1344.35 226.018 1343.77 225.413 1343.4 224.674C1343.16 224.199 1343.01 223.683 1342.97 223.162C1344 221.949 1344.96 220.633 1345.83 219.238ZM1295.01 220.929L1333.07 241.675C1333.79 242.066 1334.04 243.107 1333.63 244C1333.23 244.893 1332.32 245.3 1331.61 244.91L1293.55 224.163C1292.83 223.773 1292.58 222.732 1292.98 221.839C1293.39 220.945 1294.3 220.538 1295.01 220.929ZM1198.63 74.8503C1199.47 80.0052 1198.59 85.2827 1196.18 89.522C1193.77 93.7613 1190.03 96.615 1185.78 97.4554C1181.52 98.2958 1177.11 97.054 1173.5 94.0033C1169.9 90.9524 1167.4 86.3426 1166.55 81.1877C1166.55 81.1877 1176.41 83.6288 1182.59 78.019C1188.76 72.4092 1198.63 74.8503 1198.63 74.8503ZM1206.16 87.0057C1205.64 89.2408 1204.9 91.3213 1203.99 93.1349C1203.38 94.0563 1202.89 94.9061 1202.42 95.6943C1200.01 99.8258 1198.58 102.264 1187.54 104.446C1176.02 106.722 1174.28 105.297 1170.02 101.827L1170.02 101.827L1170.02 101.827C1169.42 101.337 1168.77 100.806 1168.04 100.239C1162.1 95.6575 1160.92 90.0957 1159.76 83.0257L1164.34 82.1203C1165.99 92.191 1170.73 96.2506 1170.73 96.2506C1170.73 96.2506 1175.31 101.973 1186.76 99.71C1198.22 97.4466 1200 90.4651 1200 90.4651C1200 90.4651 1202.75 82.4808 1201.39 74.1873L1206.2 73.2384C1206.76 72.9199 1207.35 72.6735 1207.98 72.5078C1209.55 72.0901 1211.2 72.2072 1212.68 72.8418C1214.16 73.4763 1215.4 74.5945 1216.2 76.0303C1217.01 77.466 1217.34 79.1428 1217.15 80.8118C1216.96 82.4807 1216.26 84.0528 1215.15 85.2946C1214.04 86.5364 1212.58 87.3818 1210.99 87.7052C1209.4 88.0286 1207.76 87.8126 1206.32 87.0896C1206.27 87.0623 1206.21 87.0344 1206.16 87.0057ZM1207.06 77.5126C1207.54 76.9691 1208.17 76.5804 1208.86 76.3965C1209.63 76.194 1210.42 76.2508 1211.14 76.5584C1211.86 76.8661 1212.46 77.4083 1212.85 78.1044C1213.24 78.8006 1213.4 79.6136 1213.31 80.4228C1213.22 81.2321 1212.88 81.9943 1212.34 82.5964C1211.8 83.1986 1211.1 83.6084 1210.32 83.7652C1209.55 83.9221 1208.76 83.8174 1208.06 83.4668C1207.61 83.2413 1207.21 82.9218 1206.9 82.5311C1207.06 80.8852 1207.12 79.2001 1207.06 77.5126ZM1167.19 112.137L1209.01 103.873C1209.8 103.718 1210.57 104.387 1210.73 105.369C1210.89 106.35 1210.38 107.272 1209.59 107.428L1167.77 115.692C1166.98 115.847 1166.22 115.178 1166.05 114.196C1165.89 113.215 1166.4 112.293 1167.19 112.137ZM1250.98 385.331C1250.79 390.564 1248.89 395.507 1245.7 399.071C1242.51 402.635 1238.29 404.53 1233.97 404.337C1229.65 404.144 1225.59 401.88 1222.67 398.044C1219.76 394.207 1218.23 389.111 1218.42 383.878C1218.42 383.878 1227.56 388.609 1234.7 384.604C1241.84 380.599 1250.98 385.331 1250.98 385.331ZM1255.93 398.991C1254.98 401.048 1253.85 402.905 1252.6 404.458C1251.83 405.212 1251.17 405.924 1250.57 406.583L1250.57 406.583C1247.39 410.041 1245.52 412.081 1234.31 411.581C1222.62 411.059 1221.19 409.252 1217.73 404.852C1217.24 404.231 1216.71 403.557 1216.1 402.828C1211.21 396.941 1211.16 391.231 1211.43 384.053L1216.08 384.261C1215.7 394.485 1219.52 399.575 1219.52 399.575C1219.52 399.575 1222.86 406.254 1234.49 406.773C1246.12 407.292 1249.24 400.902 1249.24 400.902C1249.24 400.902 1253.5 393.763 1253.81 385.343L1258.69 385.561C1259.3 385.383 1259.93 385.285 1260.57 385.272C1262.19 385.239 1263.78 385.746 1265.1 386.718C1266.42 387.691 1267.41 389.077 1267.91 390.67C1268.41 392.264 1268.4 393.98 1267.89 395.564C1267.37 397.148 1266.38 398.515 1265.05 399.463C1263.72 400.411 1262.13 400.888 1260.51 400.825C1258.89 400.762 1257.34 400.161 1256.07 399.111C1256.02 399.072 1255.98 399.032 1255.93 398.991ZM1258.68 389.938C1259.27 389.524 1259.96 389.294 1260.67 389.279C1261.45 389.263 1262.22 389.509 1262.86 389.98C1263.5 390.452 1263.98 391.124 1264.23 391.896C1264.47 392.669 1264.47 393.501 1264.22 394.269C1263.97 395.037 1263.48 395.7 1262.84 396.16C1262.19 396.619 1261.42 396.851 1260.64 396.82C1259.85 396.79 1259.1 396.498 1258.49 395.989C1258.09 395.662 1257.77 395.256 1257.54 394.799C1258.02 393.231 1258.41 391.6 1258.68 389.938ZM1212.92 414.241L1255.38 416.136C1256.18 416.172 1256.8 417.008 1256.76 418.005C1256.72 419.001 1256.04 419.78 1255.25 419.744L1212.79 417.849C1211.99 417.814 1211.37 416.977 1211.41 415.98C1211.44 414.984 1212.12 414.205 1212.92 414.241ZM606.858 375.896C605.601 383.458 601.916 390.213 596.616 394.676C591.315 399.139 584.832 400.945 578.593 399.694C572.354 398.444 566.87 394.241 563.348 388.011C559.826 381.779 558.553 374.031 559.811 366.469C559.811 366.469 572.216 375.399 583.335 371.182C594.454 366.965 606.858 375.896 606.858 375.896ZM611.504 396.859C609.738 399.635 607.755 402.08 605.648 404.056C604.382 404.979 603.3 405.866 602.296 406.688C597.036 410.999 593.932 413.544 577.736 410.298C560.838 406.912 559.107 403.967 554.893 396.794C554.297 395.781 553.652 394.683 552.908 393.488C546.896 383.833 547.888 375.524 549.612 365.153L556.333 366.499C553.877 381.273 558.474 389.527 558.474 389.527C558.474 389.527 562.089 399.984 578.891 403.351C595.694 406.718 601.424 398.133 601.424 398.133C601.424 398.133 608.949 388.716 610.973 376.55L618.017 377.961C618.936 377.84 619.874 377.84 620.809 377.965C623.166 378.28 625.377 379.374 627.116 381.084C628.855 382.794 630.028 385.029 630.461 387.457C630.894 389.886 630.564 392.378 629.52 394.564C628.476 396.751 626.773 398.514 624.665 399.593C622.557 400.672 620.156 401.009 617.818 400.554C615.48 400.098 613.33 398.875 611.687 397.066C611.625 396.998 611.564 396.929 611.504 396.859ZM617.194 384.321C618.119 383.85 619.164 383.671 620.201 383.81C621.344 383.962 622.416 384.493 623.259 385.322C624.102 386.151 624.671 387.235 624.881 388.412C625.091 389.59 624.931 390.798 624.425 391.858C623.918 392.918 623.093 393.773 622.071 394.296C621.049 394.82 619.884 394.983 618.751 394.762C617.617 394.541 616.575 393.948 615.778 393.071C615.266 392.507 614.873 391.844 614.619 391.128C615.618 388.959 616.487 386.675 617.194 384.321ZM546.158 409.359L607.505 421.651C608.66 421.882 609.403 423.237 609.163 424.677C608.924 426.117 607.793 427.096 606.638 426.865L545.291 414.573C544.136 414.341 543.393 412.986 543.633 411.547C543.872 410.107 545.003 409.127 546.158 409.359Z" fill="#2F2105"/>
</g>
</svg>
